<?xml version="1.0" encoding="utf-8"?>
<!-- Generator: Adobe Illustrator 23.0.3, SVG Export Plug-In . SVG Version: 6.00 Build 0)  -->
<svg version="1.1" id="Layer_1" xmlns="http://www.w3.org/2000/svg" xmlns:xlink="http://www.w3.org/1999/xlink" x="0px" y="0px"
	 viewBox="0 0 792 1224" style="enable-background:new 0 0 792 1224;" xml:space="preserve">
<style type="text/css">
	.st0{font-family:'OCR-AII';}
	.st1{font-size:12px;}
</style>
<g>
	<path d="M38.32,201.9v-6.8c0-0.13,0.05-0.25,0.14-0.35s0.21-0.15,0.35-0.15c0.13,0,0.25,0.05,0.35,0.15s0.15,0.21,0.15,0.35v2.9h3
		v-2.9c0-0.13,0.05-0.25,0.14-0.35s0.21-0.15,0.35-0.15s0.25,0.05,0.35,0.15s0.14,0.22,0.14,0.36v6.79c0,0.13-0.05,0.25-0.15,0.35
		s-0.21,0.15-0.34,0.15c-0.14,0-0.26-0.05-0.35-0.14s-0.14-0.21-0.14-0.35v-2.92h-2.99v2.92c0,0.13-0.05,0.25-0.15,0.35
		s-0.22,0.15-0.35,0.15c-0.13,0-0.25-0.05-0.35-0.14S38.32,202.04,38.32,201.9z"/>
	<path d="M49.96,198.18l-2.65,6c-0.09,0.21-0.25,0.32-0.47,0.32h-1.37c-0.14,0-0.25-0.05-0.35-0.14s-0.14-0.21-0.14-0.35
		c0-0.14,0.05-0.25,0.14-0.35s0.21-0.14,0.35-0.14h1.05l0.67-1.56h-0.24c-0.22,0-0.38-0.12-0.48-0.35l-1.48-3.43v-0.95
		c0-0.14,0.05-0.25,0.14-0.35s0.21-0.14,0.34-0.14c0.14,0,0.25,0.05,0.35,0.14s0.15,0.21,0.15,0.35v0.73l1.29,3h0.34l1.34-2.99
		v-0.76c0-0.13,0.05-0.24,0.15-0.34c0.1-0.1,0.22-0.15,0.36-0.15c0.13,0,0.25,0.05,0.35,0.15c0.1,0.1,0.15,0.21,0.15,0.35V198.18z"
		/>
	<path d="M55.61,197.43v-2.33c0-0.14,0.05-0.25,0.14-0.35s0.21-0.14,0.34-0.14c0.14,0,0.25,0.05,0.35,0.14s0.15,0.21,0.15,0.35v6.8
		c0,0.14-0.05,0.25-0.15,0.35s-0.21,0.14-0.35,0.14c-0.14,0-0.26-0.05-0.35-0.14s-0.14-0.21-0.14-0.35v-0.22
		c-0.48,0.47-0.93,0.71-1.35,0.71h-0.84c-0.34,0-0.67-0.14-1.01-0.43L52,201.62c-0.09-0.09-0.18-0.24-0.27-0.45
		s-0.13-0.41-0.13-0.59v-2c0-0.22,0.05-0.44,0.14-0.65s0.2-0.37,0.33-0.47l0.4-0.35c0.29-0.25,0.63-0.38,1.02-0.38h0.71
		c0.39,0,0.74,0.14,1.05,0.41L55.61,197.43z M54.18,197.72h-0.69c-0.14,0-0.28,0.05-0.39,0.16l-0.32,0.28
		c-0.11,0.1-0.16,0.22-0.16,0.38v2.09c0,0.14,0.06,0.26,0.19,0.37l0.32,0.28c0.1,0.09,0.21,0.13,0.32,0.13h0.8
		c0.11,0,0.23-0.06,0.38-0.18l0.78-0.64c0.13-0.11,0.19-0.25,0.19-0.42v-1.07c0-0.24-0.07-0.41-0.21-0.53l-0.8-0.69
		C54.49,197.77,54.35,197.72,54.18,197.72z"/>
	<path d="M58.29,201.9v-4.67c0-0.14,0.05-0.25,0.14-0.35s0.21-0.15,0.35-0.15s0.25,0.05,0.35,0.15s0.14,0.22,0.14,0.36v0.62
		l0.8-0.69c0.33-0.28,0.66-0.42,0.97-0.42h0.72c0.41,0,0.75,0.14,1.04,0.43s0.43,0.64,0.43,1.04v0.26c0,0.14-0.05,0.26-0.14,0.36
		s-0.21,0.15-0.35,0.15s-0.25-0.05-0.35-0.14s-0.14-0.21-0.14-0.35v-0.28c0-0.14-0.05-0.25-0.14-0.35s-0.21-0.14-0.35-0.14h-0.64
		c-0.14,0-0.29,0.07-0.46,0.22l-1.4,1.21v2.75c0,0.14-0.05,0.25-0.15,0.35s-0.21,0.14-0.35,0.14c-0.14,0-0.25-0.05-0.35-0.14
		S58.29,202.04,58.29,201.9z"/>
	<path d="M69.9,198.52v2.08c0,0.44-0.21,0.85-0.62,1.22s-0.84,0.56-1.29,0.56h-1.15c-0.45,0-0.88-0.19-1.29-0.57
		s-0.62-0.79-0.62-1.22v-2.08c0-0.43,0.2-0.83,0.6-1.22s0.83-0.57,1.3-0.57h1.15c0.44-0.01,0.87,0.18,1.29,0.55
		S69.9,198.07,69.9,198.52z M65.92,198.56v1.99c0,0.18,0.06,0.32,0.19,0.43l0.37,0.32c0.08,0.07,0.2,0.11,0.35,0.11h1.14
		c0.17,0,0.32-0.06,0.46-0.18l0.3-0.26c0.12-0.09,0.18-0.22,0.18-0.39v-1.99c0-0.2-0.06-0.34-0.18-0.43l-0.35-0.28
		c-0.12-0.1-0.25-0.15-0.41-0.15h-1.02c-0.22,0-0.39,0.05-0.52,0.16l-0.33,0.29C65.99,198.26,65.92,198.39,65.92,198.56z"/>
	<path d="M82.7,202.37h-0.49c-0.13,0-0.25-0.05-0.35-0.14s-0.15-0.21-0.15-0.35s0.05-0.25,0.14-0.35s0.21-0.14,0.35-0.14v-3.25
		h-3.47c-0.13,0-0.25-0.05-0.35-0.15s-0.15-0.21-0.15-0.35v-2.55c0-0.13,0.05-0.25,0.15-0.35s0.21-0.15,0.35-0.15h3.96
		c0.13,0,0.25,0.05,0.35,0.15s0.15,0.21,0.15,0.35v6.79c0,0.14-0.05,0.25-0.14,0.35S82.84,202.37,82.7,202.37z M82.22,197.14v-1.55
		h-2.99v1.55H82.22z"/>
	<path d="M84.86,201.43v-5.89c0-0.26,0.09-0.48,0.28-0.67s0.41-0.28,0.67-0.28h3.07c0.25,0,0.47,0.09,0.66,0.28s0.28,0.41,0.28,0.67
		v5.89c0,0.26-0.09,0.49-0.28,0.67s-0.41,0.28-0.67,0.28h-3.06c-0.27,0-0.49-0.09-0.67-0.28S84.86,201.7,84.86,201.43z M88.85,201.4
		v-5.81h-3v5.81H88.85z"/>
	<path d="M91.51,201.43v-5.89c0-0.26,0.09-0.48,0.28-0.67s0.41-0.28,0.67-0.28h3.07c0.25,0,0.47,0.09,0.66,0.28s0.28,0.41,0.28,0.67
		v5.89c0,0.26-0.09,0.49-0.28,0.67s-0.41,0.28-0.67,0.28h-3.06c-0.27,0-0.49-0.09-0.67-0.28S91.51,201.7,91.51,201.43z M95.49,201.4
		v-5.81h-3v5.81H95.49z"/>
	<path d="M98.16,201.43v-5.89c0-0.26,0.09-0.48,0.28-0.67s0.41-0.28,0.67-0.28h3.07c0.25,0,0.47,0.09,0.66,0.28s0.28,0.41,0.28,0.67
		v5.89c0,0.26-0.09,0.49-0.28,0.67s-0.41,0.28-0.67,0.28h-3.06c-0.27,0-0.49-0.09-0.67-0.28S98.16,201.7,98.16,201.43z
		 M102.14,201.4v-5.81h-3v5.81H102.14z"/>
</g>
<text transform="matrix(1 0 0 1 38.3248 220.274)"><tspan x="0" y="0" class="st0 st1">ON   OFF</tspan><tspan x="0" y="28.8" class="st0 st1">SENSORS</tspan><tspan x="0" y="57.6" class="st0 st1">1   2   3   4   5</tspan><tspan x="0" y="86.4" class="st0 st1">MOTORS</tspan><tspan x="0" y="115.2" class="st0 st1">WATER LEVEL</tspan><tspan x="0" y="144" class="st0 st1">OVERFLOW</tspan></text>
<g>
	<path d="M240.32,207.75l1.08,2.21c0.15,0.3,0.23,0.63,0.23,0.98c0,0.34-0.08,0.67-0.23,0.97l-1.08,2.19
		c-0.23,0.48-0.62,0.72-1.17,0.72c-0.26,0-0.5-0.07-0.71-0.21s-0.37-0.31-0.47-0.52l-1.09-2.19c-0.14-0.29-0.22-0.61-0.22-0.97
		s0.07-0.69,0.22-0.98l1.09-2.21c0.25-0.48,0.64-0.72,1.18-0.72C239.7,207.03,240.09,207.27,240.32,207.75z M238.82,208.25
		l-1.02,2.07c-0.09,0.21-0.14,0.41-0.14,0.61c0,0.21,0.05,0.42,0.14,0.62l1.05,2.1c0.05,0.13,0.15,0.19,0.3,0.19
		c0.13,0,0.22-0.06,0.29-0.19l1.05-2.1c0.1-0.21,0.15-0.41,0.15-0.62c0-0.21-0.05-0.42-0.15-0.61l-1.03-2.07
		c-0.07-0.15-0.17-0.23-0.31-0.23S238.9,208.09,238.82,208.25z"/>
	<path d="M248.28,207.54v7.28h-1.32l-2.65-6.05v5.55c0,0.14-0.05,0.25-0.14,0.35s-0.21,0.14-0.35,0.14s-0.25-0.05-0.35-0.14
		s-0.14-0.21-0.14-0.35v-7.29h1.3l2.66,6.04v-5.53c0-0.14,0.05-0.25,0.15-0.35s0.22-0.15,0.35-0.15s0.25,0.05,0.35,0.15
		S248.28,207.4,248.28,207.54z"/>
	<path d="M273.56,207.75l1.08,2.21c0.15,0.3,0.23,0.63,0.23,0.98c0,0.34-0.08,0.67-0.23,0.97l-1.08,2.19
		c-0.23,0.48-0.62,0.72-1.17,0.72c-0.26,0-0.5-0.07-0.71-0.21s-0.37-0.31-0.47-0.52l-1.09-2.19c-0.14-0.29-0.22-0.61-0.22-0.97
		s0.07-0.69,0.22-0.98l1.09-2.21c0.25-0.48,0.64-0.72,1.18-0.72C272.94,207.03,273.33,207.27,273.56,207.75z M272.06,208.25
		l-1.02,2.07c-0.09,0.21-0.14,0.41-0.14,0.61c0,0.21,0.05,0.42,0.14,0.62l1.05,2.1c0.05,0.13,0.15,0.19,0.3,0.19
		c0.13,0,0.22-0.06,0.29-0.19l1.05-2.1c0.1-0.21,0.15-0.41,0.15-0.62c0-0.21-0.05-0.42-0.15-0.61l-1.03-2.07
		c-0.07-0.15-0.17-0.23-0.31-0.23S272.14,208.09,272.06,208.25z"/>
	<path d="M276.57,214.33v-7.29h4.46c0.13,0,0.24,0.05,0.34,0.15s0.15,0.21,0.15,0.35c0,0.14-0.05,0.25-0.15,0.35
		s-0.21,0.15-0.35,0.15h-3.48v1.55h2.5c0.14,0,0.25,0.05,0.35,0.14s0.14,0.21,0.14,0.35s-0.05,0.25-0.14,0.35s-0.21,0.14-0.35,0.14
		h-2.5v3.77c0,0.14-0.05,0.25-0.14,0.35s-0.21,0.14-0.35,0.14s-0.25-0.05-0.35-0.14S276.57,214.46,276.57,214.33z"/>
	<path d="M283.21,214.33v-7.29h4.46c0.13,0,0.24,0.05,0.34,0.15s0.15,0.21,0.15,0.35c0,0.14-0.05,0.25-0.15,0.35
		s-0.21,0.15-0.35,0.15h-3.48v1.55h2.5c0.14,0,0.25,0.05,0.35,0.14s0.14,0.21,0.14,0.35s-0.05,0.25-0.14,0.35s-0.21,0.14-0.35,0.14
		h-2.5v3.77c0,0.14-0.05,0.25-0.14,0.35s-0.21,0.14-0.35,0.14s-0.25-0.05-0.35-0.14S283.21,214.46,283.21,214.33z"/>
	<path d="M237.79,235.83h2.56c0.31,0,0.61,0.13,0.89,0.4s0.42,0.58,0.42,0.96c0,0.14-0.05,0.26-0.15,0.36s-0.21,0.15-0.33,0.15
		c-0.17,0-0.28-0.04-0.35-0.11s-0.12-0.22-0.18-0.42c-0.06-0.21-0.18-0.31-0.38-0.31h-2.44c-0.12,0-0.18,0.04-0.18,0.11
		c0,0.05,0.02,0.1,0.07,0.17l3.66,4.67c0.18,0.23,0.26,0.47,0.26,0.73c0,0.29-0.11,0.55-0.32,0.77s-0.45,0.33-0.71,0.33h-2.65
		c-0.35,0-0.66-0.13-0.92-0.4s-0.39-0.56-0.39-0.88c0-0.37,0.17-0.55,0.52-0.55c0.13,0,0.25,0.05,0.34,0.14s0.14,0.21,0.14,0.34
		c0,0.11,0.04,0.19,0.11,0.26s0.16,0.11,0.27,0.11h2.45c0.11,0,0.16-0.04,0.16-0.13c0-0.04-0.02-0.09-0.07-0.15l-3.65-4.67
		c-0.17-0.22-0.26-0.46-0.26-0.73c0-0.3,0.11-0.57,0.33-0.79C237.21,235.94,237.48,235.83,237.79,235.83z"/>
	<path d="M247.79,236.83h-3.48v2.4h1.5c0.13,0,0.25,0.05,0.35,0.15s0.15,0.21,0.15,0.35c0,0.14-0.05,0.26-0.14,0.36
		s-0.21,0.15-0.35,0.15h-1.5v2.41h3.49c0.13,0,0.25,0.05,0.35,0.14s0.15,0.21,0.15,0.35s-0.05,0.25-0.15,0.35s-0.22,0.14-0.35,0.14
		h-4.46v-7.79h4.46c0.14,0,0.25,0.05,0.35,0.15s0.15,0.22,0.15,0.35c0,0.13-0.05,0.25-0.15,0.35S247.93,236.83,247.79,236.83z"/>
	<path d="M254.93,236.34v7.28h-1.32l-2.65-6.05v5.55c0,0.14-0.05,0.25-0.14,0.35s-0.21,0.14-0.35,0.14s-0.25-0.05-0.35-0.14
		s-0.14-0.21-0.14-0.35v-7.29h1.3l2.66,6.04v-5.53c0-0.14,0.05-0.25,0.15-0.35s0.22-0.15,0.35-0.15s0.25,0.05,0.35,0.15
		S254.93,236.2,254.93,236.34z"/>
	<path d="M257.73,235.83h2.56c0.31,0,0.61,0.13,0.89,0.4s0.42,0.58,0.42,0.96c0,0.14-0.05,0.26-0.15,0.36s-0.21,0.15-0.33,0.15
		c-0.17,0-0.28-0.04-0.35-0.11s-0.12-0.22-0.18-0.42c-0.06-0.21-0.18-0.31-0.38-0.31h-2.44c-0.12,0-0.18,0.04-0.18,0.11
		c0,0.05,0.02,0.1,0.07,0.17l3.66,4.67c0.18,0.23,0.26,0.47,0.26,0.73c0,0.29-0.11,0.55-0.32,0.77s-0.45,0.33-0.71,0.33h-2.65
		c-0.35,0-0.66-0.13-0.92-0.4s-0.39-0.56-0.39-0.88c0-0.37,0.17-0.55,0.52-0.55c0.13,0,0.25,0.05,0.34,0.14s0.14,0.21,0.14,0.34
		c0,0.11,0.04,0.19,0.11,0.26s0.16,0.11,0.27,0.11h2.45c0.11,0,0.16-0.04,0.16-0.13c0-0.04-0.02-0.09-0.07-0.15l-3.65-4.67
		c-0.17-0.22-0.26-0.46-0.26-0.73c0-0.3,0.11-0.57,0.33-0.79C257.16,235.94,257.42,235.83,257.73,235.83z"/>
	<path d="M266.91,236.55l1.08,2.21c0.15,0.3,0.23,0.63,0.23,0.98c0,0.34-0.08,0.67-0.23,0.97l-1.08,2.19
		c-0.23,0.48-0.62,0.72-1.17,0.72c-0.26,0-0.5-0.07-0.71-0.21s-0.37-0.31-0.47-0.52l-1.09-2.19c-0.14-0.29-0.22-0.61-0.22-0.97
		s0.07-0.69,0.22-0.98l1.09-2.21c0.25-0.48,0.64-0.72,1.18-0.72C266.29,235.83,266.68,236.07,266.91,236.55z M265.41,237.04
		l-1.02,2.07c-0.09,0.21-0.14,0.41-0.14,0.61c0,0.21,0.05,0.42,0.14,0.62l1.05,2.1c0.05,0.13,0.15,0.19,0.3,0.19
		c0.13,0,0.22-0.06,0.29-0.19l1.05-2.1c0.1-0.21,0.15-0.41,0.15-0.62c0-0.21-0.05-0.42-0.15-0.61l-1.03-2.07
		c-0.07-0.15-0.17-0.23-0.31-0.23S265.49,236.89,265.41,237.04z"/>
	<path d="M269.93,243.13v-7.29h3.48c0.4,0,0.75,0.15,1.04,0.44s0.44,0.64,0.44,1.05v0.56c0,0.41-0.14,0.76-0.43,1.05
		s-0.64,0.44-1.04,0.44h-0.63l2.01,3.46c0.06,0.1,0.09,0.2,0.09,0.3c0,0.13-0.05,0.25-0.15,0.34s-0.22,0.14-0.35,0.14
		c-0.2,0-0.34-0.09-0.45-0.26l-2.3-3.99h-0.71v3.76c0,0.14-0.05,0.25-0.15,0.35s-0.22,0.14-0.35,0.14s-0.25-0.05-0.35-0.14
		S269.93,243.26,269.93,243.13z M270.91,238.39h2.5c0.14,0,0.25-0.05,0.35-0.14s0.14-0.21,0.14-0.35v-0.57
		c0-0.14-0.05-0.25-0.14-0.35s-0.21-0.14-0.35-0.14h-2.5V238.39z"/>
	<path d="M277.67,235.83h2.56c0.31,0,0.61,0.13,0.89,0.4s0.42,0.58,0.42,0.96c0,0.14-0.05,0.26-0.15,0.36s-0.21,0.15-0.33,0.15
		c-0.17,0-0.28-0.04-0.35-0.11s-0.12-0.22-0.18-0.42c-0.06-0.21-0.18-0.31-0.38-0.31h-2.44c-0.12,0-0.18,0.04-0.18,0.11
		c0,0.05,0.02,0.1,0.07,0.17l3.66,4.67c0.18,0.23,0.26,0.47,0.26,0.73c0,0.29-0.11,0.55-0.32,0.77s-0.45,0.33-0.71,0.33h-2.65
		c-0.35,0-0.66-0.13-0.92-0.4s-0.39-0.56-0.39-0.88c0-0.37,0.17-0.55,0.52-0.55c0.13,0,0.25,0.05,0.34,0.14s0.14,0.21,0.14,0.34
		c0,0.11,0.04,0.19,0.11,0.26s0.16,0.11,0.27,0.11h2.45c0.11,0,0.16-0.04,0.16-0.13c0-0.04-0.02-0.09-0.07-0.15l-3.65-4.67
		c-0.17-0.22-0.26-0.46-0.26-0.73c0-0.3,0.11-0.57,0.33-0.79C277.1,235.94,277.37,235.83,277.67,235.83z"/>
	<path d="M237.13,271.42h1.51v-5.81h-1.49c-0.14,0-0.25-0.05-0.35-0.14s-0.14-0.21-0.14-0.35s0.05-0.25,0.14-0.35
		s0.21-0.14,0.35-0.14h2.47v6.79h0.98v-2.05c0-0.13,0.05-0.25,0.14-0.35s0.21-0.15,0.35-0.15s0.25,0.05,0.35,0.14
		s0.14,0.21,0.14,0.35v2.54c0,0.14-0.05,0.25-0.14,0.35s-0.21,0.14-0.35,0.14h-3.97c-0.14,0-0.25-0.05-0.35-0.15
		s-0.14-0.22-0.14-0.35c0-0.13,0.05-0.25,0.14-0.34S237,271.42,237.13,271.42z"/>
	<path d="M267.73,272.41h-4.48v-3.4c0-0.27,0.1-0.51,0.29-0.7s0.42-0.29,0.69-0.29h2.99v-2.4h-3.52c-0.14,0-0.26-0.05-0.35-0.14
		s-0.14-0.21-0.14-0.35s0.05-0.25,0.14-0.35s0.21-0.14,0.35-0.14h3.52c0.27,0,0.51,0.1,0.7,0.29s0.29,0.42,0.29,0.69v2.4
		c0,0.28-0.1,0.51-0.29,0.71s-0.43,0.29-0.7,0.29h-2.99v2.41h3.49c0.13,0,0.25,0.05,0.35,0.14s0.15,0.21,0.15,0.35
		s-0.05,0.25-0.15,0.35S267.87,272.41,267.73,272.41z"/>
	<path d="M294.82,265.62v1.85c0,0.43-0.13,0.78-0.4,1.04c0.27,0.3,0.41,0.64,0.41,1v1.92c0,0.27-0.1,0.5-0.29,0.69
		s-0.43,0.29-0.7,0.29h-3.48c-0.14,0-0.25-0.05-0.35-0.14s-0.14-0.21-0.14-0.35s0.05-0.25,0.14-0.35s0.21-0.14,0.35-0.14h3.47v-1.92
		c0-0.14-0.05-0.25-0.14-0.35s-0.21-0.15-0.35-0.15h-1.98c-0.14,0-0.25-0.05-0.35-0.14s-0.14-0.21-0.14-0.35
		c0-0.14,0.05-0.25,0.14-0.35s0.21-0.14,0.35-0.14h1.99c0.13,0,0.25-0.05,0.35-0.14s0.15-0.21,0.15-0.35v-1.9h-3.52
		c-0.14,0-0.25-0.05-0.35-0.14s-0.14-0.21-0.14-0.35s0.05-0.25,0.14-0.35s0.21-0.14,0.35-0.14h3.52c0.27,0,0.51,0.1,0.7,0.29
		S294.82,265.35,294.82,265.62z"/>
	<path d="M319.67,271.92v-2.05h-2.96v-4.74c0-0.14,0.05-0.25,0.15-0.35s0.22-0.15,0.35-0.15c0.13,0,0.25,0.05,0.35,0.15
		s0.15,0.22,0.15,0.35v3.74h1.97v-2.88c0-0.14,0.05-0.25,0.14-0.35s0.21-0.15,0.35-0.15s0.25,0.05,0.35,0.15s0.14,0.22,0.14,0.35
		v2.88c0.14,0,0.25,0.05,0.35,0.14s0.14,0.21,0.14,0.35s-0.05,0.25-0.14,0.35s-0.21,0.14-0.35,0.14v2.06c0,0.14-0.05,0.25-0.15,0.35
		s-0.21,0.14-0.35,0.14c-0.14,0-0.25-0.05-0.35-0.14S319.67,272.05,319.67,271.92z"/>
	<path d="M344.85,271.42h2.28v-2.41h-2.98v-4.38h3.47c0.13,0,0.25,0.05,0.35,0.15s0.15,0.21,0.15,0.35c0,0.14-0.05,0.25-0.14,0.35
		s-0.21,0.14-0.35,0.14h-2.47v2.41h1.98c0.27,0,0.5,0.1,0.69,0.29s0.29,0.43,0.29,0.69v2.41c0,0.27-0.1,0.5-0.29,0.69
		s-0.42,0.29-0.69,0.29h-2.28c-0.2,0-0.42-0.05-0.65-0.15l-0.74-0.31c-0.2-0.08-0.3-0.24-0.3-0.47c0-0.14,0.04-0.25,0.13-0.35
		s0.2-0.14,0.33-0.14c0.1,0,0.21,0.03,0.34,0.09l0.65,0.28C344.68,271.4,344.76,271.42,344.85,271.42z"/>
	<path d="M238.66,296.49v-0.25l-1.02-1.46v5.94c0,0.14-0.05,0.25-0.14,0.35s-0.21,0.14-0.35,0.14s-0.25-0.05-0.35-0.15
		s-0.14-0.21-0.14-0.35v-7.29h1.28l1.2,1.76l1.25-1.76h1.25v7.29c0,0.14-0.05,0.25-0.15,0.35s-0.22,0.14-0.35,0.14
		c-0.13,0-0.25-0.05-0.35-0.15s-0.15-0.21-0.15-0.35v-5.92l-1,1.41v0.27c0,0.13-0.05,0.25-0.15,0.34s-0.21,0.15-0.35,0.15
		c-0.14,0-0.25-0.05-0.35-0.15C238.71,296.74,238.66,296.63,238.66,296.49z"/>
	<path d="M246.97,294.15l1.08,2.21c0.15,0.3,0.23,0.63,0.23,0.98c0,0.34-0.08,0.67-0.23,0.97l-1.08,2.19
		c-0.23,0.48-0.62,0.72-1.17,0.72c-0.26,0-0.5-0.07-0.71-0.21s-0.37-0.31-0.47-0.52l-1.09-2.19c-0.14-0.29-0.22-0.61-0.22-0.97
		s0.07-0.69,0.22-0.98l1.09-2.21c0.25-0.48,0.64-0.72,1.18-0.72C246.35,293.43,246.74,293.67,246.97,294.15z M245.47,294.65
		l-1.02,2.07c-0.09,0.21-0.14,0.41-0.14,0.61c0,0.21,0.05,0.42,0.14,0.62l1.05,2.1c0.05,0.13,0.15,0.19,0.3,0.19
		c0.13,0,0.22-0.06,0.29-0.19l1.05-2.1c0.1-0.21,0.15-0.41,0.15-0.62c0-0.21-0.05-0.42-0.15-0.61l-1.03-2.07
		c-0.07-0.15-0.17-0.23-0.31-0.23S245.55,294.49,245.47,294.65z"/>
	<path d="M249.96,294.77v-1.33h4.97v1.34c0,0.14-0.05,0.25-0.15,0.35s-0.21,0.14-0.35,0.14c-0.14,0-0.25-0.05-0.35-0.15
		s-0.15-0.21-0.15-0.35v-0.36h-1v6.3c0,0.14-0.05,0.25-0.15,0.35s-0.21,0.14-0.35,0.14c-0.14,0-0.26-0.05-0.36-0.14
		s-0.15-0.21-0.15-0.35v-6.3h-1v0.35c0,0.14-0.05,0.25-0.14,0.35s-0.21,0.14-0.35,0.14s-0.25-0.05-0.35-0.14
		S249.96,294.91,249.96,294.77z"/>
	<path d="M260.27,294.15l1.08,2.21c0.15,0.3,0.23,0.63,0.23,0.98c0,0.34-0.08,0.67-0.23,0.97l-1.08,2.19
		c-0.23,0.48-0.62,0.72-1.17,0.72c-0.26,0-0.5-0.07-0.71-0.21s-0.37-0.31-0.47-0.52l-1.09-2.19c-0.14-0.29-0.22-0.61-0.22-0.97
		s0.07-0.69,0.22-0.98l1.09-2.21c0.25-0.48,0.64-0.72,1.18-0.72C259.64,293.43,260.03,293.67,260.27,294.15z M258.77,294.65
		l-1.02,2.07c-0.09,0.21-0.14,0.41-0.14,0.61c0,0.21,0.05,0.42,0.14,0.62l1.05,2.1c0.05,0.13,0.15,0.19,0.3,0.19
		c0.13,0,0.22-0.06,0.29-0.19l1.05-2.1c0.1-0.21,0.15-0.41,0.15-0.62c0-0.21-0.05-0.42-0.15-0.61l-1.03-2.07
		c-0.07-0.15-0.17-0.23-0.31-0.23S258.84,294.49,258.77,294.65z"/>
	<path d="M263.28,300.73v-7.29h3.48c0.4,0,0.75,0.15,1.04,0.44s0.44,0.64,0.44,1.05v0.56c0,0.41-0.14,0.76-0.43,1.05
		s-0.64,0.44-1.04,0.44h-0.63l2.01,3.46c0.06,0.1,0.09,0.2,0.09,0.3c0,0.13-0.05,0.25-0.15,0.34s-0.22,0.14-0.35,0.14
		c-0.2,0-0.34-0.09-0.45-0.26l-2.3-3.99h-0.71v3.76c0,0.14-0.05,0.25-0.15,0.35s-0.22,0.14-0.35,0.14s-0.25-0.05-0.35-0.14
		S263.28,300.86,263.28,300.73z M264.27,295.99h2.5c0.14,0,0.25-0.05,0.35-0.14s0.14-0.21,0.14-0.35v-0.57
		c0-0.14-0.05-0.25-0.14-0.35s-0.21-0.14-0.35-0.14h-2.5V295.99z"/>
	<path d="M271.03,293.43h2.56c0.31,0,0.61,0.13,0.89,0.4s0.42,0.58,0.42,0.96c0,0.14-0.05,0.26-0.15,0.36s-0.21,0.15-0.33,0.15
		c-0.17,0-0.28-0.04-0.35-0.11s-0.12-0.22-0.18-0.42c-0.06-0.21-0.18-0.31-0.38-0.31h-2.44c-0.12,0-0.18,0.04-0.18,0.11
		c0,0.05,0.02,0.1,0.07,0.17l3.66,4.67c0.18,0.23,0.26,0.47,0.26,0.73c0,0.29-0.11,0.55-0.32,0.77s-0.45,0.33-0.71,0.33h-2.65
		c-0.35,0-0.66-0.13-0.92-0.4s-0.39-0.56-0.39-0.88c0-0.37,0.17-0.55,0.52-0.55c0.13,0,0.25,0.05,0.34,0.14s0.14,0.21,0.14,0.34
		c0,0.11,0.04,0.19,0.11,0.26s0.16,0.11,0.27,0.11h2.45c0.11,0,0.16-0.04,0.16-0.13c0-0.04-0.02-0.09-0.07-0.15l-3.65-4.67
		c-0.17-0.22-0.26-0.46-0.26-0.73c0-0.3,0.11-0.57,0.33-0.79C270.45,293.54,270.72,293.43,271.03,293.43z"/>
	<path d="M239.65,325.28v3.28l0.29,0.48h0.41l0.3-0.49v-5.81c0-0.14,0.05-0.25,0.15-0.35s0.22-0.15,0.35-0.15
		c0.13,0,0.25,0.05,0.35,0.15s0.15,0.21,0.15,0.35v5.98c0,0.07-0.04,0.18-0.12,0.31l-0.46,0.76c-0.09,0.17-0.24,0.25-0.43,0.25
		h-0.93c-0.29,0-0.48-0.13-0.56-0.4c-0.09,0.27-0.27,0.4-0.54,0.4h-0.87c-0.25,0-0.43-0.09-0.54-0.28l-0.42-0.71
		c-0.08-0.13-0.12-0.24-0.12-0.33v-5.96c0-0.14,0.05-0.25,0.15-0.35s0.22-0.15,0.35-0.15c0.13,0,0.24,0.05,0.34,0.15
		s0.14,0.22,0.14,0.35v5.83l0.29,0.47h0.42l0.31-0.49v-3.26c0-0.14,0.05-0.25,0.14-0.35s0.21-0.14,0.35-0.14s0.25,0.05,0.35,0.14
		S239.65,325.14,239.65,325.28z"/>
	<path d="M243.35,329.33l1.98-6.74c0.08-0.24,0.24-0.37,0.5-0.37c0.24,0,0.4,0.1,0.46,0.31l1.96,6.84c0.02,0.05,0.02,0.1,0.02,0.15
		c0,0.14-0.05,0.25-0.14,0.35s-0.2,0.14-0.32,0.14c-0.26,0-0.42-0.12-0.49-0.36l-0.4-1.34h-2.24l-0.43,1.43
		c-0.01,0.06-0.06,0.12-0.15,0.18s-0.18,0.08-0.28,0.08c-0.15,0-0.27-0.05-0.36-0.15c-0.09-0.1-0.14-0.22-0.14-0.36
		C243.33,329.46,243.34,329.4,243.35,329.33z M245.83,324.51l-0.84,2.82h1.66L245.83,324.51z"/>
	<path d="M249.96,323.57v-1.33h4.97v1.34c0,0.14-0.05,0.25-0.15,0.35s-0.21,0.14-0.35,0.14c-0.14,0-0.25-0.05-0.35-0.15
		s-0.15-0.21-0.15-0.35v-0.36h-1v6.3c0,0.14-0.05,0.25-0.15,0.35s-0.21,0.14-0.35,0.14c-0.14,0-0.26-0.05-0.36-0.14
		s-0.15-0.21-0.15-0.35v-6.3h-1v0.35c0,0.14-0.05,0.25-0.14,0.35s-0.21,0.14-0.35,0.14s-0.25-0.05-0.35-0.14
		S249.96,323.71,249.96,323.57z"/>
	<path d="M261.09,323.23h-3.48v2.4h1.5c0.13,0,0.25,0.05,0.35,0.15s0.15,0.21,0.15,0.35c0,0.14-0.05,0.26-0.14,0.36
		s-0.21,0.15-0.35,0.15h-1.5v2.41h3.49c0.13,0,0.25,0.05,0.35,0.14s0.15,0.21,0.15,0.35s-0.05,0.25-0.15,0.35s-0.22,0.14-0.35,0.14
		h-4.46v-7.79h4.46c0.14,0,0.25,0.05,0.35,0.15s0.15,0.22,0.15,0.35c0,0.13-0.05,0.25-0.15,0.35S261.22,323.23,261.09,323.23z"/>
	<path d="M263.28,329.53v-7.29h3.48c0.4,0,0.75,0.15,1.04,0.44s0.44,0.64,0.44,1.05v0.56c0,0.41-0.14,0.76-0.43,1.05
		s-0.64,0.44-1.04,0.44h-0.63l2.01,3.46c0.06,0.1,0.09,0.2,0.09,0.3c0,0.13-0.05,0.25-0.15,0.34s-0.22,0.14-0.35,0.14
		c-0.2,0-0.34-0.09-0.45-0.26l-2.3-3.99h-0.71v3.76c0,0.14-0.05,0.25-0.15,0.35s-0.22,0.14-0.35,0.14s-0.25-0.05-0.35-0.14
		S263.28,329.66,263.28,329.53z M264.27,324.79h2.5c0.14,0,0.25-0.05,0.35-0.14s0.14-0.21,0.14-0.35v-0.57
		c0-0.14-0.05-0.25-0.14-0.35s-0.21-0.14-0.35-0.14h-2.5V324.79z"/>
	<path d="M276.57,330.02v-7.29c0-0.13,0.05-0.25,0.15-0.35s0.21-0.15,0.35-0.15s0.25,0.05,0.35,0.15s0.15,0.21,0.15,0.35v6.31h3.48
		c0.14,0,0.25,0.05,0.35,0.14s0.15,0.21,0.15,0.35s-0.05,0.25-0.15,0.35s-0.22,0.14-0.35,0.14H276.57z"/>
	<path d="M287.68,323.23h-3.48v2.4h1.5c0.13,0,0.25,0.05,0.35,0.15s0.15,0.21,0.15,0.35c0,0.14-0.05,0.26-0.14,0.36
		s-0.21,0.15-0.35,0.15h-1.5v2.41h3.49c0.13,0,0.25,0.05,0.35,0.14s0.15,0.21,0.15,0.35s-0.05,0.25-0.15,0.35s-0.22,0.14-0.35,0.14
		h-4.46v-7.79h4.46c0.14,0,0.25,0.05,0.35,0.15s0.15,0.22,0.15,0.35c0,0.13-0.05,0.25-0.15,0.35S287.82,323.23,287.68,323.23z"/>
	<path d="M294.84,322.74v1.81l-2.01,5.1c-0.1,0.25-0.26,0.37-0.48,0.37c-0.23,0-0.39-0.12-0.49-0.37l-1.99-5.1v-1.81
		c0-0.14,0.05-0.26,0.14-0.36c0.1-0.1,0.21-0.15,0.35-0.15s0.25,0.05,0.35,0.15c0.1,0.1,0.14,0.22,0.14,0.36v1.6l1.5,3.82l1.5-3.81
		v-1.62c0-0.14,0.05-0.26,0.14-0.36c0.1-0.1,0.21-0.15,0.35-0.15c0.14,0,0.25,0.05,0.35,0.15
		C294.79,322.48,294.84,322.6,294.84,322.74z"/>
	<path d="M300.98,323.23h-3.48v2.4h1.5c0.13,0,0.25,0.05,0.35,0.15s0.15,0.21,0.15,0.35c0,0.14-0.05,0.26-0.14,0.36
		s-0.21,0.15-0.35,0.15h-1.5v2.41h3.49c0.13,0,0.25,0.05,0.35,0.14s0.15,0.21,0.15,0.35s-0.05,0.25-0.15,0.35s-0.22,0.14-0.35,0.14
		h-4.46v-7.79h4.46c0.14,0,0.25,0.05,0.35,0.15s0.15,0.22,0.15,0.35c0,0.13-0.05,0.25-0.15,0.35S301.11,323.23,300.98,323.23z"/>
	<path d="M303.16,330.02v-7.29c0-0.13,0.05-0.25,0.15-0.35s0.21-0.15,0.35-0.15s0.25,0.05,0.35,0.15s0.15,0.21,0.15,0.35v6.31h3.48
		c0.14,0,0.25,0.05,0.35,0.14s0.15,0.21,0.15,0.35s-0.05,0.25-0.15,0.35s-0.22,0.14-0.35,0.14H303.16z"/>
	<path d="M240.32,351.75l1.08,2.21c0.15,0.3,0.23,0.63,0.23,0.98c0,0.34-0.08,0.67-0.23,0.97l-1.08,2.19
		c-0.23,0.48-0.62,0.72-1.17,0.72c-0.26,0-0.5-0.07-0.71-0.21s-0.37-0.31-0.47-0.52l-1.09-2.19c-0.14-0.29-0.22-0.61-0.22-0.97
		s0.07-0.69,0.22-0.98l1.09-2.21c0.25-0.48,0.64-0.72,1.18-0.72C239.7,351.03,240.09,351.27,240.32,351.75z M238.82,352.25
		l-1.02,2.07c-0.09,0.21-0.14,0.41-0.14,0.61c0,0.21,0.05,0.42,0.14,0.62l1.05,2.1c0.05,0.13,0.15,0.19,0.3,0.19
		c0.13,0,0.22-0.06,0.29-0.19l1.05-2.1c0.1-0.21,0.15-0.41,0.15-0.62c0-0.21-0.05-0.42-0.15-0.61l-1.03-2.07
		c-0.07-0.15-0.17-0.23-0.31-0.23S238.9,352.09,238.82,352.25z"/>
	<path d="M248.31,351.54v1.81l-2.01,5.1c-0.1,0.25-0.26,0.37-0.48,0.37c-0.23,0-0.39-0.12-0.49-0.37l-1.99-5.1v-1.81
		c0-0.14,0.05-0.26,0.14-0.36c0.1-0.1,0.21-0.15,0.35-0.15s0.25,0.05,0.35,0.15c0.1,0.1,0.14,0.22,0.14,0.36v1.6l1.5,3.82l1.5-3.81
		v-1.62c0-0.14,0.05-0.26,0.14-0.36c0.1-0.1,0.21-0.15,0.35-0.15c0.14,0,0.25,0.05,0.35,0.15
		C248.26,351.28,248.31,351.4,248.31,351.54z"/>
	<path d="M254.44,352.03h-3.48v2.4h1.5c0.13,0,0.25,0.05,0.35,0.15s0.15,0.21,0.15,0.35c0,0.14-0.05,0.26-0.14,0.36
		s-0.21,0.15-0.35,0.15h-1.5v2.41h3.49c0.13,0,0.25,0.05,0.35,0.14s0.15,0.21,0.15,0.35s-0.05,0.25-0.15,0.35s-0.22,0.14-0.35,0.14
		h-4.46v-7.79h4.46c0.14,0,0.25,0.05,0.35,0.15s0.15,0.22,0.15,0.35c0,0.13-0.05,0.25-0.15,0.35S254.58,352.03,254.44,352.03z"/>
	<path d="M256.63,358.33v-7.29h3.48c0.4,0,0.75,0.15,1.04,0.44s0.44,0.64,0.44,1.05v0.56c0,0.41-0.14,0.76-0.43,1.05
		s-0.64,0.44-1.04,0.44h-0.63l2.01,3.46c0.06,0.1,0.09,0.2,0.09,0.3c0,0.13-0.05,0.25-0.15,0.34s-0.22,0.14-0.35,0.14
		c-0.2,0-0.34-0.09-0.45-0.26l-2.3-3.99h-0.71v3.76c0,0.14-0.05,0.25-0.15,0.35s-0.22,0.14-0.35,0.14s-0.25-0.05-0.35-0.14
		S256.63,358.46,256.63,358.33z M257.62,353.59h2.5c0.14,0,0.25-0.05,0.35-0.14s0.14-0.21,0.14-0.35v-0.57
		c0-0.14-0.05-0.25-0.14-0.35s-0.21-0.14-0.35-0.14h-2.5V353.59z"/>
	<path d="M263.27,358.33v-7.29h4.46c0.13,0,0.24,0.05,0.34,0.15s0.15,0.21,0.15,0.35c0,0.14-0.05,0.25-0.15,0.35
		s-0.21,0.15-0.35,0.15h-3.48v1.55h2.5c0.14,0,0.25,0.05,0.35,0.14s0.14,0.21,0.14,0.35s-0.05,0.25-0.14,0.35s-0.21,0.14-0.35,0.14
		h-2.5v3.77c0,0.14-0.05,0.25-0.14,0.35s-0.21,0.14-0.35,0.14s-0.25-0.05-0.35-0.14S263.27,358.46,263.27,358.33z"/>
	<path d="M269.92,358.82v-7.29c0-0.13,0.05-0.25,0.15-0.35s0.21-0.15,0.35-0.15s0.25,0.05,0.35,0.15s0.15,0.21,0.15,0.35v6.31h3.48
		c0.14,0,0.25,0.05,0.35,0.14s0.15,0.21,0.15,0.35s-0.05,0.25-0.15,0.35s-0.22,0.14-0.35,0.14H269.92z"/>
	<path d="M280.21,351.75l1.08,2.21c0.15,0.3,0.23,0.63,0.23,0.98c0,0.34-0.08,0.67-0.23,0.97l-1.08,2.19
		c-0.23,0.48-0.62,0.72-1.17,0.72c-0.26,0-0.5-0.07-0.71-0.21s-0.37-0.31-0.47-0.52l-1.09-2.19c-0.14-0.29-0.22-0.61-0.22-0.97
		s0.07-0.69,0.22-0.98l1.09-2.21c0.25-0.48,0.64-0.72,1.18-0.72C279.59,351.03,279.98,351.27,280.21,351.75z M278.71,352.25
		l-1.02,2.07c-0.09,0.21-0.14,0.41-0.14,0.61c0,0.21,0.05,0.42,0.14,0.62l1.05,2.1c0.05,0.13,0.15,0.19,0.3,0.19
		c0.13,0,0.22-0.06,0.29-0.19l1.05-2.1c0.1-0.21,0.15-0.41,0.15-0.62c0-0.21-0.05-0.42-0.15-0.61l-1.03-2.07
		c-0.07-0.15-0.17-0.23-0.31-0.23S278.79,352.09,278.71,352.25z"/>
	<path d="M286.19,354.08v3.28l0.29,0.48h0.41l0.3-0.49v-5.81c0-0.14,0.05-0.25,0.15-0.35s0.22-0.15,0.35-0.15
		c0.13,0,0.25,0.05,0.35,0.15s0.15,0.21,0.15,0.35v5.98c0,0.07-0.04,0.18-0.12,0.31l-0.46,0.76c-0.09,0.17-0.24,0.25-0.43,0.25
		h-0.93c-0.29,0-0.48-0.13-0.56-0.4c-0.09,0.27-0.27,0.4-0.54,0.4h-0.87c-0.25,0-0.43-0.09-0.54-0.28l-0.42-0.71
		c-0.08-0.13-0.12-0.24-0.12-0.33v-5.96c0-0.14,0.05-0.25,0.15-0.35s0.22-0.15,0.35-0.15c0.13,0,0.24,0.05,0.34,0.15
		s0.14,0.22,0.14,0.35v5.83l0.29,0.47h0.42l0.31-0.49v-3.26c0-0.14,0.05-0.25,0.14-0.35s0.21-0.14,0.35-0.14s0.25,0.05,0.35,0.14
		S286.19,353.94,286.19,354.08z"/>
</g>
</svg>
